<?xml version="1.0" encoding="UTF-8" standalone="no"?>
<svg id="JsLogo" version="1.1" height="100%" width="100%" viewBox="0 0 400 454"
    xml:space="preserve" xmlns="http://www.w3.org/2000/svg">
 <title>JavaScript shield logo</title>
 <g id="group1" stroke-width="1.33">
  <path id="path4" fill="#fff"
      d="m 1.343,0
         l 0.06292,5.043
         c 0.03467,2.773 8.056,94.6 17.82,204.1
         l 17.76,199
         l 79.83,22.39
         c 43.91,12.31 80.74,22.45 81.84,22.53
         c 1.108,0.077 38.42,-9.958 82.93,-22.3
         c 71.35,-19.79 80.98,-22.77 81.49,-25.22
         c 0.7118,-3.413 35.65,-398.3 35.62,-402.5
         l -0.0257,-3.026
         h -198.7
         Z" />
  <path id="path3" fill="#eaebec"
      d="m 117.5,431.8
         l -80.54,-22.55
         l -1.053,-5.968
         c -0.9356,-5.304 -35.86,-396.1 -35.86,-401.2
         c 0,-1.869 20.39,-2.081 200,-2.081
         c 189.6,0 200,0.1225 200,2.353
         c -0.0626,9.635 -36.21,405.6 -37.1,406.4
         c -1.123,0.9959 -157,44.5 -162.2,45.27
         c -1.477,0.2184 -38.93,-9.751 -83.22,-22.15
         Z
         m 133.3,-79.69
         c 27.07,-7.479 49.61,-13.98 50.09,-14.46
         c 0.4775,-0.4714 3.645,-32.62 7.039,-71.45
         c 3.394,-38.83 6.514,-73.17 6.933,-76.31
         l 0.7613,-5.715
         h -116.9
         v 49.75
         h 63.14
         l -0.6278,3.026
         c -0.3455,1.664 -1.688,15.96 -2.984,31.78
         c -1.373,16.76 -3,29.4 -3.901,30.3
         c -0.8502,0.8517 -13.71,4.797 -28.59,8.768
         l -27.04,7.22
         v 25.34
         c 0,17.3 0.4614,25.34 1.454,25.34
         c 0.7998,0 23.6,-6.119 50.67,-13.6
         Z
         m 64.05,-199.2
         c -0.8872,-6.589 -8.791,-94.96 -8.791,-98.3
         c 0,-2.024 -4.647,-2.218 -53.02,-2.218
         h -53.02
         v 52.03
         l 23.83,0.92
         c 13.1,0.5061 26.9,1.276 30.65,1.711
         l 6.821,0.7914
         l 1.656,20.35
         c 0.9108,11.19 1.996,22.62 2.412,25.39
         l 0.7553,5.043
         h 49.49
         Z" />
  <path id="path2" fill="#f0be25"
      d="m 116.8,430.5
         l -79.83,-22.39
         l -17.76,-199
         c -9.769,-109.5 -17.79,-201.3 -17.82,-204.1
         l -0.06302,-5.043
         h 397.3
         l 0.0259,3.026
         c 0.0355,4.224 -34.9,399.1 -35.62,402.5
         c -0.5106,2.45 -10.14,5.43 -81.49,25.22
         c -44.5,12.34 -81.82,22.38 -82.93,22.3
         c -1.108,-0.0771 -37.94,-10.22 -81.84,-22.53
         Z
         m 134,-77.39
         c 27.6,-7.686 50.57,-14.61 51.04,-15.38
         c 0.4786,-0.7761 3.775,-34.57 7.326,-75.1
         c 3.551,-40.53 6.747,-74.75 7.102,-76.04
         c 0.6106,-2.223 -4.085,-2.353 -85.08,-2.353
         h -85.73
         l 3.65,-38.66
         c 2.008,-21.26 3.699,-38.71 3.758,-38.78
         c 0.0586,-0.0666 12.64,-0.4694 27.96,-0.8933
         c 25.12,-0.6957 76.92,1.312 78.65,3.048
         c 0.6474,0.6485 4.907,42.51 4.907,48.22
         c 0,2.818 0.3797,2.86 26.01,2.86
         h 26.01
         l -0.6128,-5.715
         c -0.3373,-3.143 -2.541,-27.5 -4.896,-54.12
         l -4.283,-48.41
         l -100.3,-0.3447
         c -79.8,-0.2743 -100.3,0.00065 -100.3,1.345
         c -0.007,0.9292 -0.591,6.833 -1.3,13.12
         c -1.715,15.21 -14.8,162.2 -14.8,166.3
         v 3.179
         h 170.7
         l -0.7612,5.043
         c -0.4184,2.773 -1.745,16.84 -2.948,31.26
         c -1.203,14.42 -2.575,26.59 -3.048,27.05
         c -1.251,1.203 -51.46,14.64 -54.6,14.61
         c -1.454,-0.0138 -14.42,-3.255 -28.82,-7.203
         l -26.18,-7.178
         l -0.9599,-11.29
         c -0.5282,-6.208 -1.331,-15.07 -1.785,-19.69
         l -0.825,-8.404
         h -50.79
         l 0.05613,5.043
         c 0.1051,9.43 6.209,72.95 7.096,73.84
         c 1.025,1.027 98.57,28.5 101.6,28.6
         c 1.108,0.0393 24.59,-6.216 52.19,-13.9
         Z" />
  <path id="path1" fill="#e4a126"
      d="m 116.8,430.5
         l -79.83,-22.39
         l -17.76,-199
         c -9.769,-109.5 -17.79,-201.3 -17.82,-204.1
         l -0.06302,-5.043
         h 397.3
         l 0.0259,3.026
         c 0.0355,4.224 -34.9,399.1 -35.62,402.5
         c -0.5106,2.45 -10.14,5.43 -81.49,25.22
         c -44.5,12.34 -81.82,22.38 -82.93,22.3
         c -1.108,-0.0771 -37.94,-10.22 -81.84,-22.53
         Z
         m 148.9,-29.95
         c 35.12,-9.707 64.51,-18.33 65.31,-19.16
         c 1.255,-1.295 31.58,-334.3 31.46,-345.4
         l -0.0401,-3.698
         h -162.4
         v 18.83
         h -46.98
         c -36.68,0 -46.98,0.3684 -46.99,1.681
         c -0.007,0.9244 -0.591,6.824 -1.3,13.11
         c -1.715,15.21 -14.8,162.2 -14.8,166.3
         v 3.179
         h 110.1
         v 39
         c 0,30.31 -0.3735,38.99 -1.678,38.97
         c -0.9228,-0.0139 -13.46,-3.255 -27.85,-7.203
         l -26.18,-7.178
         l -0.9599,-11.29
         c -0.5282,-6.208 -1.331,-15.07 -1.785,-19.69
         l -0.825,-8.404
         h -50.79
         l 0.05613,5.043
         c 0.1608,14.42 6.389,73.3 7.85,74.2
         c 0.8879,0.5498 24.24,7.271 51.89,14.94
         l 50.28,13.94
         v 25.28
         c 0,13.9 0.4138,25.28 0.9192,25.28
         c 0.5056,0 29.65,-7.942 64.77,-17.65
         Z
         m -116.7-254.6
         c 1.93,-21.06 3.772,-38.54 4.093,-38.83
         c 0.3214,-0.2912 11,-0.8188 23.74,-1.171
         l 23.15,-0.6418
         v 78.94
         h -54.5
         Z" />
 </g>
</svg>
